<svg width="445" height="284" viewBox="0 0 445 284" fill="none" xmlns="http://www.w3.org/2000/svg">
<rect width="445" height="284" fill="#EDF3F8"/>
<g clip-path="url(#clip0_0_1)">
<rect width="1440" height="3066" transform="translate(-165 -1359)" fill="#EDF3F8"/>
<g filter="url(#filter0_d_0_1)">
<rect width="445" height="284" rx="8" fill="#1B262F"/>
</g>
<path d="M0 8C0 3.58172 3.58172 0 8 0H437C441.418 0 445 3.58172 445 8V40H0V8Z" fill="#2E3F4D"/>
<circle cx="24" cy="20" r="8" fill="#BA4270"/>
<circle cx="46.4" cy="20" r="8" fill="#527695"/>
<circle cx="68.8" cy="20" r="8" fill="#36536B"/>
<text fill="#FBFCFE" xml:space="preserve" style="white-space: pre" font-family="Roboto Mono" font-size="13" letter-spacing="0px"><tspan x="32" y="87.0496">&#60;form id=&#34;form-id&#34; method=&#34;GET&#34;&#62; &#60;/form&#62;&#10;</tspan><tspan x="32" y="107.05">&#60;script&#10;</tspan><tspan x="32" y="127.05">  src=&#34;https://loremipsum.com/api.js&#34;&#10;</tspan><tspan x="32" y="147.05">  data-client-name=&#34;Your Company&#39;s Name&#34;&#10;</tspan><tspan x="32" y="167.05">  data-form-id=&#34;form-id&#34;&#10;</tspan><tspan x="32" y="187.05">  data-key=&#34;test_key&#34;&#10;</tspan><tspan x="32" y="207.05">  data-product=&#34;transactions&#34;&#10;</tspan><tspan x="32" y="227.05">  data-env=&#34;sandbox&#34;&#62;&#10;</tspan><tspan x="32" y="247.05">&#60;/script&#62;</tspan></text>
</g>
<defs>
<filter id="filter0_d_0_1" x="-55" y="-55" width="605" height="444" filterUnits="userSpaceOnUse" color-interpolation-filters="sRGB">
<feFlood flood-opacity="0" result="BackgroundImageFix"/>
<feColorMatrix in="SourceAlpha" type="matrix" values="0 0 0 0 0 0 0 0 0 0 0 0 0 0 0 0 0 0 127 0" result="hardAlpha"/>
<feOffset dx="25" dy="25"/>
<feGaussianBlur stdDeviation="40"/>
<feColorMatrix type="matrix" values="0 0 0 0 0.212302 0 0 0 0 0.32521 0 0 0 0 0.419299 0 0 0 0.300727 0"/>
<feBlend mode="normal" in2="BackgroundImageFix" result="effect1_dropShadow_0_1"/>
<feBlend mode="normal" in="SourceGraphic" in2="effect1_dropShadow_0_1" result="shape"/>
</filter>
<clipPath id="clip0_0_1">
<rect width="1440" height="3066" fill="white" transform="translate(-165 -1359)"/>
</clipPath>
</defs>
</svg>
